HIERARCHY
ROOT Hips
{
  OFFSET -187.679 86.5976 -156.378
  CHANNELS 6 Xposition Yposition Zposition Zrotation Xrotation Yrotation
  JOINT LeftUpLeg
  {
    OFFSET 8.64259 1.95398 -2.38835
    CHANNELS 3 Zrotation Xrotation Yrotation
    JOINT LeftLeg
    {
      OFFSET 43.7702 0 0
      CHANNELS 3 Zrotation Xrotation Yrotation
      JOINT LeftFoot
      {
        OFFSET 40.6238 0 0
        CHANNELS 3 Zrotation Xrotation Yrotation
        JOINT LeftToeBase
        {
          OFFSET 12.7242 0 0
          CHANNELS 3 Zrotation Xrotation Yrotation
          End Site
          {
            OFFSET 0 0 0
          }
        }
      }
    }
  }
  JOINT RightUpLeg
  {
    OFFSET -8.2249 1.95398 -2.59336
    CHANNELS 3 Zrotation Xrotation Yrotation
    JOINT RightLeg
    {
      OFFSET 43.5653 0 0
      CHANNELS 3 Zrotation Xrotation Yrotation
      JOINT RightFoot
      {
        OFFSET 40.6238 0 0
        CHANNELS 3 Zrotation Xrotation Yrotation
        JOINT RightToeBase
        {
          OFFSET 12.7242 0 0
          CHANNELS 3 Zrotation Xrotation Yrotation
          End Site
          {
            OFFSET 0 0 0
          }
        }
      }
    }
  }
  JOINT Spine
  {
    OFFSET 0.165834 0.87714 6.61349
    CHANNELS 3 Zrotation Xrotation Yrotation
    JOINT Spine1
    {
      OFFSET 7.38963 1.71661e-005 0
      CHANNELS 3 Zrotation Xrotation Yrotation
      JOINT Spine2
      {
        OFFSET 11.9445 1.14441e-005 0
        CHANNELS 3 Zrotation Xrotation Yrotation
        JOINT Spine3
        {
          OFFSET 14.7254 4.19617e-005 0
          CHANNELS 3 Zrotation Xrotation Yrotation
          JOINT Spine4
          {
            OFFSET 10.9679 0 0
            CHANNELS 3 Zrotation Xrotation Yrotation
            JOINT RightShoulder
            {
              OFFSET 2.46616 -1.6653 3.69651
              CHANNELS 3 Zrotation Xrotation Yrotation
              JOINT RightArm
              {
                OFFSET 13.0012 0 0
                CHANNELS 3 Zrotation Xrotation Yrotation
                JOINT RightForeArm
                {
                  OFFSET 28.7848 1.52588e-005 0
                  CHANNELS 3 Zrotation Xrotation Yrotation
                  JOINT RightHand
                  {
                    OFFSET 26.5688 1.52588e-005 0
                    CHANNELS 3 Zrotation Xrotation Yrotation
                    End Site
                    {
                      OFFSET 0 0 0
                    }
                  }
                }
              }
            }
            JOINT LeftShoulder
            {
              OFFSET 2.38034 -1.29275 -3.7523
              CHANNELS 3 Zrotation Xrotation Yrotation
              JOINT LeftArm
              {
                OFFSET 16.3182 6.10352e-005 0
                CHANNELS 3 Zrotation Xrotation Yrotation
                JOINT LeftForeArm
                {
                  OFFSET 27.0901 0 0
                  CHANNELS 3 Zrotation Xrotation Yrotation
                  JOINT LeftHand
                  {
                    OFFSET 24.5451 1.52588e-005 0
                    CHANNELS 3 Zrotation Xrotation Yrotation
                    End Site
                    {
                      OFFSET 0 0 0
                    }
                  }
                }
              }
            }
            JOINT Neck
            {
              OFFSET 5.0226 -0.0266342 0
              CHANNELS 3 Zrotation Xrotation Yrotation
              JOINT Head
              {
                OFFSET 6.69363 2.86102e-005 0
                CHANNELS 3 Zrotation Xrotation Yrotation
                End Site
                {
                  OFFSET 0 0 0
                }
              }
            }
          }
        }
      }
    }
  }
}
MOTION
Frames:	15
Frame Time:	0.0416667
36.0226 102.105 -343.236 152.745 -68.007 146.599 -164.55 -20.2428 98.6674 -14.5012 43.2508 3.50921 73.3188 8.30789 2.68086 15.249 -7.38685 4.09601 169.928 -30.4722 85.3829 -4.04798 16.5129 2.11825 69.766 -2.18257 1.76586 24.5886 -1.85369 3.67601 -2.51268 7.28553 -86.8794 12.3683 -3.51228 6.62883 0.684396 -3.21781 6.77615 -21.7953 -5.3396 5.27178 -1.78266 -5.3396 5.27178 37.9196 -62.678 -161.768 31.6596 -18.3879 12.3766 -21.7865 -19.2825 -26.3903 -8.87782 -0.224688 -2.16321 -80.0701 -6.78437 89.9718 -63.2147 8.90606 20.3509 17.9644 12.3702 -24.8249 -2.8066 -0.0846852 -4.7058 -16.1469 9.10744 -32.5432 9.51586 10.8081 16.5182 
35.2329 102.195 -343.462 154.19 -70.1258 147.716 -166.459 -20.5155 96.3125 -12.3184 39.4972 4.94897 72.5921 7.23994 1.8927 16.5701 -6.9986 4.57645 169.453 -27.5699 84.6962 -5.8534 14.158 2.39809 70.2133 -2.30356 1.44731 24.5794 -1.78881 3.47394 -2.42704 7.23205 -87.1021 12.4728 -3.44425 6.18336 0.790972 -3.16933 6.32827 -21.7009 -5.14136 4.86632 -1.68823 -5.14135 4.86631 43.9706 -62.1828 -155.365 31.5819 -20.1595 10.2218 -19.6589 -17.2753 -23.75 -9.84596 -0.217557 -2.53709 -79.7181 -9.19563 91.3666 -62.3603 10.6664 18.922 17.6969 11.1499 -25.075 -5.0483 -0.082433 -4.32353 -14.7441 8.69809 -29.7352 9.92754 10.648 14.8961 
34.1726 102.394 -344.012 156.898 -73.512 150.297 -168.793 -19.2197 93.6946 -10.5751 34.9249 6.15036 71.5049 6.26934 1.39347 18.2884 -6.65176 5.58767 169.394 -23.0248 84.4625 -8.29027 10.7825 2.58155 70.7346 -2.54311 0.609082 24.4265 -1.83473 3.52434 -2.34837 7.13676 -87.4641 12.6609 -3.45456 5.47353 0.982374 -3.21071 5.61974 -21.5299 -4.93851 4.18469 -1.51721 -4.93851 4.1847 52.3041 -60.492 -146.77 31.3465 -24.0601 6.3247 -17.9558 -18.5717 -20.9751 -10.5949 -0.0862292 -4.21441 -78.9393 -13.4658 93.9571 -59.4709 11.6559 16.8142 17.1407 9.89504 -25.0386 -4.33774 -0.0775307 -4.80253 -12.339 8.4857 -23.9356 9.84363 10.503 11.4768 
32.9913 102.465 -344.716 165.348 -76.2576 158.695 -171.057 -17.7118 91.3666 -10.9154 29.4031 7.64508 71.2876 5.8666 0.596969 19.0154 -7.69798 8.65669 168.925 -18.8483 83.8938 -11.5828 6.81803 3.02651 71.9119 -3.03808 0.273433 23.8022 -2.06122 3.84072 -2.09944 7.20417 -87.9095 12.5146 -3.17595 4.54329 0.839137 -2.97314 4.67836 -21.6878 -4.3938 3.37994 -1.67513 -4.39379 3.37994 61.9476 -57.2327 -136.825 31.9632 -24.1581 3.44316 -18.7378 -20.4186 -21.9597 -10.2405 -0.123857 -3.73538 -78.0328 -18.937 96.4695 -55.8346 12.7694 14.1297 16.3611 7.34873 -25.2983 -5.64826 -0.0424023 -5.65548 -8.20431 7.44781 -18.0638 7.60615 9.52167 9.76766 
31.7197 102.097 -345.543 173.496 -77.0751 166.985 -172.927 -16.3498 91.0254 -11.8412 25.0676 6.9782 70.5286 6.71648 0.622931 20.699 -7.45532 10.053 168.269 -15.5024 83.4343 -16.3709 3.9495 3.91795 74.1284 -3.64327 0.615571 23.4863 -2.53906 5.05854 -1.91986 7.52467 -88.3824 11.8645 -3.05665 3.55235 0.191933 -2.89744 3.68329 -22.3505 -3.98258 2.46964 -2.33787 -3.98258 2.46965 70.1921 -52.8231 -128.306 31.8139 -26.3602 -1.92116 -17.0561 -19.8697 -19.6579 -11.6211 -0.156207 -3.56096 -76.9291 -25.1605 98.9387 -51.3125 13.2823 11.049 16.5469 6.54463 -26.468 -6.12921 -0.0233246 -6.12102 -3.7664 7.15287 -10.715 7.19828 8.78016 6.49562 
30.6344 101.606 -346.698 175.1 -77.251 170.048 -176.106 -5.00571 90.9042 -31.5126 17.2194 8.30354 74.1032 6.81348 -4.9292 21.0155 -7.08095 9.42989 168.541 -13.5713 84.906 -19.393 3.93984 5.17711 75.3714 -3.96937 1.31027 22.9349 -3.05961 6.22925 -1.7237 7.91753 -89.0842 11.0649 -3.0064 2.11289 -0.604543 -2.91053 2.24317 -23.1626 -3.50225 1.11099 -3.14995 -3.50226 1.11098 77.7371 -46.6198 -120.479 31.5398 -30.2102 -8.40067 -14.8258 -18.735 -16.5485 -11.4212 0.0459811 -5.66855 -76.3193 -33.0311 99.9758 -45.5516 12.6623 8.35789 16.4556 4.47444 -28.6766 -3.58923 -0.0818076 -4.50609 0.40846 6.93921 -1.9864 6.10362 7.33492 2.75873 
30.0161 101.956 -347.445 177.769 -77.9359 172.424 178.102 4.73497 89.0637 -41.6983 1.3966 12.169 74.1549 -2.85346 -37.3727 14.0314 -14.0687 15.8149 168.856 -12.9248 85.2732 -18.3803 4.92564 4.95116 74.4616 -4.24126 2.31389 23.8735 -3.34727 7.6598 -1.36075 8.19689 -89.5517 10.4923 -2.50464 1.1145 -1.17678 -2.45316 1.22368 -23.7308 -2.72373 0.309724 -3.71814 -2.72373 0.309719 82.2544 -41.1973 -115.836 32.2002 -28.6863 -11.7486 -15.387 -18.3728 -16.8487 -10.3505 0.00963172 -5.34534 -76.3348 -39.8674 99.7528 -41.6227 12.3448 6.03786 15.978 2.89748 -29.6276 -2.7562 -0.0942461 -2.4362 2.38723 6.56799 4.35836 5.59368 5.74839 -0.180154 
29.7255 101.933 -347.75 -168.022 -78.9595 -174.713 179.502 10.5455 85.2556 -40.0694 8.14987 7.95171 72.7592 0.990094 -19.8015 18.5476 -9.6298 12.0562 168.994 -9.22591 84.1774 -22.0762 1.75723 3.68261 75.2041 -4.381 1.80056 24.009 -2.81771 6.20223 -0.800224 8.35562 -89.9057 10.1658 -1.55147 0.318307 -1.50422 -1.53595 0.386289 -24.047 -1.57539 -0.162801 -4.03434 -1.57539 -0.162808 86.2739 -34.0319 -112.029 34.4832 -27.6774 -16.3527 -14.5179 -18.8862 -14.4918 -11.2129 0.0139162 -5.35063 -77.0387 -46.7815 98.5004 -38.3971 11.7697 5.26148 14.9922 1.45476 -28.9972 -2.30498 -0.0849793 -2.67702 3.35844 6.39587 12.528 5.65382 3.85552 -4.1352 
29.5256 101.74 -346.636 -161.084 -79.0718 -168.22 -179.733 12.8441 81.8683 -29.8877 18.3687 5.25058 68.8817 5.279 -0.0604284 17.6512 -6.51399 4.62539 169.203 -9.23749 83.9154 -22.3547 1.70973 3.05235 76.0085 -4.63712 2.02235 25.1557 -3.37014 8.65072 0.0858916 8.49149 -90.223 9.89081 0.0700349 -0.448199 -1.78021 0.0502349 -0.450852 -24.3149 0.201491 -0.406434 -4.30221 0.201493 -0.406427 91.1351 -30.1101 -104.301 36.768 -27.2021 -18.9798 -15.7119 -19.6885 -16.2253 -11.5526 0.000133362 -5.18592 -83.7832 -53.7166 88.6835 -32.9179 14.0055 6.58215 13.0002 -1.32373 -26.9455 -3.75605 -0.118122 -1.58946 3.09204 3.69861 17.3894 5.86993 0.273031 -6.15029 
29.0971 101.455 -344.047 -156.567 -79.6637 -162.953 179.204 14.7594 80.9854 -19.88 19.1759 5.11915 67.3483 4.92676 1.02821 18.0562 -5.96629 3.83516 169.93 -11.4905 85.0552 -19.934 2.23096 2.73243 76.2287 -4.77697 2.29742 25.8866 -2.98872 8.01307 0.995413 8.45656 -90.0952 9.96547 1.94064 -0.347866 -1.70413 1.92344 -0.432969 -24.2507 1.95544 0.251675 -4.23806 1.95544 0.251674 92.6259 -36.2183 -99.6032 33.4532 -25.946 -19.0343 -17.7409 -17.5146 -20.1238 -9.93309 0.00330052 -5.28973 -89.8512 -52.4653 79.6947 -31.3635 15.7652 7.79682 11.9929 -1.67567 -22.7568 -3.88583 -0.107842 -2.59163 1.33669 0.112527 11.7978 7.11628 -1.97174 -3.53807 
28.4013 100.639 -340.559 -139.902 -79.1095 -145.24 179.186 16.3661 81.2514 -14.921 18.3048 5.34513 66.053 4.2973 1.77071 17.3563 -6.24197 3.74468 170.982 -12.8462 86.1738 -20.0095 0.955642 1.69184 77.8118 -5.33636 2.82062 26.5916 -2.35342 6.53552 1.63378 8.42664 -89.8926 10.0242 3.30485 -0.0599894 -1.64248 3.299 -0.205555 -24.2098 3.16992 0.937061 -4.19719 3.16993 0.937062 92.226 -42.1642 -98.8608 29.0932 -24.8369 -21.0659 -17.8161 -15.3076 -20.8772 -9.9306 -0.0470925 -4.68853 -91.6101 -50.8253 76.7552 -30.7934 18.1828 8.08536 10.8501 -2.48147 -18.8798 -4.59353 -0.115862 -2.75098 1.74203 -1.19324 7.82988 7.76647 -2.59549 -2.33346 
27.7596 99.2617 -334.731 -131.72 -78.8047 -135.708 -179.916 18.3407 81.8 -19.9006 17.0621 4.29458 66.328 4.06177 1.02866 17.9981 -5.98631 3.82115 170.891 -17.3426 86.6469 -17.1161 -0.176095 1.7154 79.3698 -6.12683 2.49375 29.1364 -1.39906 5.06008 1.50784 8.28731 -89.7897 10.2996 3.10035 0.150793 -1.36761 3.10397 0.0140528 -23.9296 2.91157 1.07639 -3.91699 2.91157 1.07638 87.8885 -46.2944 -104.871 24.8623 -25.3703 -22.4438 -16.454 -12.7915 -19.3287 -8.13309 0.0582177 -6.21661 -89.5454 -49.1779 79.4623 -32.7102 11.9561 8.81483 12.5704 1.13759 -17.8501 -5.339 -0.0894982 -4.01788 1.79553 -0.186879 6.18011 8.56425 -1.30779 -1.65969 
27.0695 98.5959 -327.648 -118.478 -76.965 -122.451 -179.549 20.6341 80.9379 -27.5759 14.3143 4.83164 64.5775 2.57472 1.37235 12.2735 -8.01693 2.59841 169.886 -21.9507 85.0193 -13.0838 -2.49292 0.710124 74.999 -5.48421 2.8266 35.113 -0.805078 7.72689 1.53034 8.04287 -89.6451 10.7854 3.2111 0.408132 -0.881591 3.22595 0.266266 -23.444 2.93986 1.35513 -3.43139 2.93987 1.35513 85.9968 -46.9781 -107.647 25.2033 -26.1973 -21.9967 -15.6173 -12.75 -17.7191 -7.39521 -0.0289468 -4.86649 -88.3997 -49.0763 81.1694 -32.8791 13.7719 10.9653 11.0297 -2.90231 -18.7041 -4.95403 -0.11042 -3.13708 3.88845 0.705213 6.00265 7.91811 -0.531357 -1.95723 
26.2095 99.0288 -319.837 -114.433 -74.0678 -119.559 -178.32 17.985 79.7263 -32.953 14.6353 3.78594 66.0053 3.37766 2.35311 16.0181 -7.894 5.95305 167.352 -19.9489 80.8851 -22.9363 -8.98242 -1.00275 70.0966 -4.14679 1.47483 36.5059 -0.569318 7.91678 1.5738 7.96457 -89.3437 10.9317 3.43689 0.980488 -0.734958 3.47671 0.828097 -23.2962 2.98324 1.96879 -3.28352 2.98326 1.9688 85.096 -47.6494 -108.826 26.3397 -27.3928 -19.388 -15.8767 -16.1756 -18.1232 -11.4465 0.0459319 -5.70027 -88.1444 -48.0295 81.3556 -31.7575 16.4818 8.25814 9.27326 -6.14413 -14.0233 -2.87801 -0.0894169 -3.44438 5.28457 0.752035 4.03762 8.02447 -0.15832 -1.52916 
25.8149 99.3716 -312.856 -114.441 -73.0921 -120.271 -177.819 13.9535 78.1577 -35.042 9.58917 3.6961 71.7491 4.68003 -0.845021 12.4397 -6.88426 0.504074 167.751 -8.08892 77.7985 -46.4469 -14.0501 -3.57616 59.4213 -0.887585 1.53931 28.0419 -2.17791 7.26459 1.31306 7.93184 -89.1878 10.9932 2.99022 1.33105 -0.674891 3.0459 1.19805 -23.2246 2.45196 2.16845 -3.21198 2.45197 2.16845 85.9361 -47.3626 -107.617 27.8015 -27.5344 -15.9529 -16.9048 -18.0561 -19.5213 -10.6583 -0.0118415 -5.18725 -88.3907 -47.1412 80.8024 -29.1823 18.7412 2.73384 8.90492 -6.17123 -11.6889 -3.5955 -0.088079 -3.79961 5.82761 0.821832 2.1611 7.67143 0.299945 -1.02785 
